<svg width="16" height="12" viewBox="0 0 16 12" fill="none" xmlns="http://www.w3.org/2000/svg">
<path d="M15.5542 4.98292C15.1593 4.21598 14.655 3.51051 14.0571 2.88864C13.2698 2.07892 12.3281 1.43528 11.2877 0.995781C10.2473 0.556279 9.12935 0.329834 7.99995 0.329834C6.87055 0.329834 5.75261 0.556279 4.71223 0.995781C3.67185 1.43528 2.73015 2.07892 1.94281 2.88864C1.34493 3.51051 0.840612 4.21598 0.445665 4.98292C0.285115 5.29794 0.201416 5.64649 0.201416 6.00006C0.201416 6.35364 0.285115 6.70219 0.445665 7.01721C0.840612 7.78415 1.34493 8.48962 1.94281 9.11149C2.73015 9.92121 3.67185 10.5648 4.71223 11.0043C5.75261 11.4439 6.87055 11.6703 7.99995 11.6703C9.12935 11.6703 10.2473 11.4439 11.2877 11.0043C12.3281 10.5648 13.2698 9.92121 14.0571 9.11149C14.655 8.48962 15.1593 7.78415 15.5542 7.01721C15.7148 6.70219 15.7985 6.35364 15.7985 6.00006C15.7985 5.64649 15.7148 5.29794 15.5542 4.98292ZM7.99995 8.57149C7.49137 8.57149 6.99421 8.42068 6.57134 8.13813C6.14847 7.85558 5.81889 7.45398 5.62426 6.98411C5.42964 6.51424 5.37871 5.99721 5.47793 5.4984C5.57715 4.9996 5.82206 4.54141 6.18168 4.18179C6.5413 3.82217 6.99948 3.57726 7.49829 3.47805C7.9971 3.37883 8.51413 3.42975 8.98399 3.62437C9.45386 3.819 9.85546 4.14859 10.138 4.57146C10.4206 4.99432 10.5714 5.49148 10.5714 6.00006C10.5714 6.68205 10.3005 7.3361 9.81823 7.81834C9.33599 8.30058 8.68194 8.57149 7.99995 8.57149Z" fill="#62CE46"/>
</svg>
