<svg width="24" height="22" viewBox="0 0 24 22" fill="none" xmlns="http://www.w3.org/2000/svg">
<path d="M12.2938 9.53597C11.9594 9.66433 12.0484 9.68529 11.6412 9.52811L0.741376 5.12981C0.652386 5.0486 0.60115 4.93596 0.595757 4.81808C0.59306 4.7002 0.636206 4.58494 0.722499 4.49849L11.35 0.10543C11.59 -0.00459296 11.8381 -0.0648435 12.2777 0.110669L23.1047 4.4199C23.2908 4.59541 23.2989 4.88095 23.1263 5.05384L12.2938 9.53597ZM12.6228 21.5128C12.6228 21.78 12.8466 21.9974 13.1244 21.9974L23.5011 16.7425C23.9056 16.4962 24 16.0614 24 15.4301V6.56273C24 6.43437 23.9488 6.31125 23.8544 6.21956C23.76 6.12788 23.6333 6.0781 23.5011 6.0781L13.1217 10.3088C12.6201 10.4974 12.6201 10.7462 12.6201 11.0134L12.6228 21.5128ZM10.8781 10.3088L0.501374 6.0781C0.369238 6.0781 0.242495 6.12788 0.148112 6.21956C0.0537294 6.31125 0.00249321 6.43437 0.00249321 6.56273V16.7556C0.00249321 16.863 -0.0649231 17.0202 0.501374 17.2402L10.8781 22C11.1531 22 11.377 21.7826 11.377 21.5154V11.0134C11.377 10.7462 11.377 10.4974 10.8781 10.3088ZM7.4911 12.8183C6.16165 12.2551 4.83489 11.6919 3.50814 11.1234C3.28971 11.0318 3.17915 10.9925 3.17915 10.8248V9.70362C3.17376 9.55693 3.26544 9.36308 3.44072 9.42857L7.53155 11.1732C7.91177 11.3487 7.79582 11.3697 7.812 12.0377V12.593C7.81469 12.7031 7.70683 12.9074 7.4911 12.8183Z" fill="#4468E9"/>
</svg>
