<svg width="16" height="12" viewBox="0 0 16 12" fill="none" xmlns="http://www.w3.org/2000/svg">
<path d="M16 9.69593C16 9.9626 15.9547 10.2133 15.864 10.4479C15.7733 10.6826 15.648 10.8959 15.488 11.0879C15.328 11.2799 15.1387 11.4373 14.92 11.5599C14.7013 11.6826 14.464 11.7653 14.208 11.8079V11.8399H13.872H13.856H3.472C3.45067 11.8399 3.43733 11.8426 3.432 11.8479C3.42667 11.8533 3.41333 11.8559 3.392 11.8559C3.37067 11.8559 3.35467 11.8533 3.344 11.8479C3.33333 11.8426 3.31733 11.8399 3.296 11.8399H3.2V11.8239C2.752 11.8026 2.33333 11.7013 1.944 11.5199C1.55467 11.3386 1.216 11.0959 0.928 10.7919C0.64 10.4879 0.413333 10.1359 0.248 9.73593C0.0826667 9.33593 0 8.91193 0 8.46393C0 8.01593 0.0826667 7.5946 0.248 7.19993C0.413333 6.80526 0.637333 6.4586 0.92 6.15993C1.20267 5.86126 1.53333 5.61593 1.912 5.42393C2.29067 5.23193 2.69867 5.11993 3.136 5.08793C3.21067 4.3946 3.40267 3.7466 3.712 3.14393C4.02133 2.54126 4.41867 2.01593 4.904 1.56793C5.38933 1.11993 5.94667 0.76793 6.576 0.51193C7.20533 0.25593 7.87733 0.12793 8.592 0.12793C9.34933 0.12793 10.064 0.27193 10.736 0.55993C11.408 0.84793 11.992 1.2426 12.488 1.74393C12.984 2.24526 13.376 2.82926 13.664 3.49593C13.952 4.1626 14.096 4.8746 14.096 5.63193C14.096 5.97326 14.064 6.3066 14 6.63193C13.936 6.95726 13.8453 7.26926 13.728 7.56793C13.7493 7.56793 13.7733 7.56526 13.8 7.55993C13.8267 7.5546 13.8507 7.55193 13.872 7.55193C14.1707 7.55193 14.448 7.60793 14.704 7.71993C14.96 7.83193 15.184 7.98393 15.376 8.17593C15.568 8.36793 15.72 8.5946 15.832 8.85593C15.944 9.11726 16 9.39726 16 9.69593ZM10.736 7.32793C10.864 7.1146 10.9013 6.99193 10.848 6.95993C10.7947 6.92793 10.6613 6.91193 10.448 6.91193C10.32 6.91193 10.1413 6.90926 9.912 6.90393C9.68267 6.8986 9.50933 6.89593 9.392 6.89593C9.22133 6.89593 9.112 6.8266 9.064 6.68793C9.016 6.54926 8.992 6.35726 8.992 6.11193C8.992 5.7706 8.98933 5.49593 8.984 5.28793C8.97867 5.07993 8.976 4.85326 8.976 4.60793C8.976 4.3306 8.95733 4.12793 8.92 3.99993C8.88267 3.87193 8.73067 3.80793 8.464 3.80793C8.272 3.80793 8.128 3.8106 8.032 3.81593C7.936 3.82126 7.80267 3.82393 7.632 3.82393C7.344 3.82393 7.16533 3.9066 7.096 4.07193C7.02667 4.23726 6.992 4.39993 6.992 4.55993V5.07193C6.992 5.2106 6.99467 5.34393 7 5.47193C7.00533 5.59993 7.008 5.73326 7.008 5.87193V6.33593C7.008 6.5066 6.98667 6.63726 6.944 6.72793C6.90133 6.8186 6.8 6.86393 6.64 6.86393C6.576 6.8746 6.488 6.8826 6.376 6.88793C6.264 6.89326 6.14933 6.8986 6.032 6.90393C5.91467 6.90926 5.80267 6.91193 5.696 6.91193H5.44C5.216 6.91193 5.08267 6.98126 5.04 7.11993C4.99733 7.2586 5.06667 7.4346 5.248 7.64793C5.42933 7.87193 5.624 8.1146 5.832 8.37593C6.04 8.63726 6.24533 8.90126 6.448 9.16793C6.65067 9.4346 6.84533 9.69326 7.032 9.94393C7.21867 10.1946 7.392 10.4106 7.552 10.5919C7.84 10.9119 8.11733 10.9066 8.384 10.5759C8.544 10.3946 8.73067 10.1599 8.944 9.87193C9.15733 9.58393 9.376 9.2826 9.6 8.96793C9.824 8.65326 10.0373 8.34926 10.24 8.05593C10.4427 7.7626 10.608 7.51993 10.736 7.32793Z" fill="#5C7CEB"/>
</svg>
