<svg width="20" height="18" viewBox="0 0 20 18" fill="none" xmlns="http://www.w3.org/2000/svg">
<path d="M18.0333 8.1952C19.3837 6.90955 19.792 4.99579 19.0592 3.32739L16.5468 5.68278C15.814 6.33052 14.673 6.29126 13.982 5.60427C13.3225 4.94672 13.3225 3.93587 13.982 3.27832L16.4945 0.922931C14.7148 0.245756 12.6735 0.618693 11.2917 1.8749C9.93077 3.15074 9.53297 5.07431 10.2762 6.73289L8.53848 8.36204L4.14175 4.24011L4.44533 3.65126L2.069 2.13007L0.572021 3.5433L2.14228 5.74167L2.85413 5.40799L7.28227 9.52992L2.14228 14.3487C1.81776 14.6529 1.80729 15.1436 2.13181 15.4478L2.14228 15.4577L3.71254 16.9396C4.03706 17.2438 4.57095 17.2438 4.89547 16.9396L10.0355 12.1307L10.7682 12.8177L10.5693 13.0041C10.2867 13.1906 10.2134 13.5537 10.4123 13.8285C10.4333 13.858 10.4542 13.8874 10.4856 13.907L13.9716 17.1653C14.2647 17.4499 14.7462 17.4794 15.0812 17.2242L16.7038 15.703C16.9969 15.389 16.9969 14.9277 16.7038 14.6235L13.2179 11.3652C12.9352 11.0904 12.506 11.2081 12.2024 11.4927L12.0559 11.6301L11.3231 10.953L13.1446 9.2355C14.8509 9.78509 16.7457 9.38271 18.0333 8.1952V8.1952Z" fill="white"/>
</svg>
