<svg width="17" height="20" viewBox="0 0 17 20" fill="none" xmlns="http://www.w3.org/2000/svg">
<path d="M13.3086 7.45754L8.17066 12.3821C8.13758 12.4371 8.09765 12.487 8.05195 12.5307C7.90079 12.6718 7.70481 12.7467 7.50361 12.7404C7.30298 12.7464 7.10765 12.6715 6.95703 12.5307C6.91107 12.4871 6.87085 12.4371 6.83744 12.3821L4.09128 9.74914C4.02241 9.68647 3.96713 9.60872 3.92923 9.52123C3.89133 9.43375 3.87171 9.33859 3.87171 9.2423C3.87171 9.14601 3.89133 9.05086 3.92923 8.96337C3.96713 8.87588 4.02241 8.79814 4.09128 8.73546C4.23833 8.60015 4.42641 8.52567 4.62102 8.52567C4.81563 8.52567 5.00371 8.60015 5.15076 8.73546L7.50361 10.9923L12.25 6.44385C12.397 6.30862 12.5849 6.23417 12.7793 6.23417C12.9738 6.23417 13.1617 6.30862 13.3086 6.44385C13.3775 6.50653 13.4328 6.58428 13.4707 6.67176C13.5086 6.75925 13.5282 6.8544 13.5282 6.95069C13.5282 7.04699 13.5086 7.14214 13.4707 7.22962C13.4328 7.31711 13.3775 7.39486 13.3086 7.45754ZM16.0477 3.25986C15.813 3.0534 15.5172 2.94151 15.2124 2.9439C15.184 2.9439 15.1557 2.9439 15.1273 2.94579C15.1096 2.94767 14.9129 2.95895 14.6047 2.95895C14.0953 2.95895 13.0987 2.92416 12.1553 2.70318C10.9372 2.41543 9.53134 1.08579 9.12207 0.822498C8.91628 0.691776 8.68066 0.623474 8.44085 0.625026C8.20432 0.625026 7.96691 0.69085 7.76051 0.822498C7.7109 0.854469 6.2386 2.36372 4.79908 2.70318C3.85564 2.92416 2.84133 2.95895 2.33107 2.95895C2.02279 2.95895 1.82613 2.94767 1.80753 2.94579C1.78095 2.9439 1.75438 2.9439 1.72692 2.9439C1.41686 2.9439 1.11656 3.0558 0.888893 3.25986C0.640852 3.48178 0.5 3.79209 0.5 4.11745V7.05319C0.5 17.9047 7.91022 19.3021 8.2247 19.3575C8.36826 19.3808 8.51432 19.3808 8.65788 19.3575C8.97236 19.3011 16.4375 17.9047 16.4375 7.05319V4.11745C16.4375 3.79209 16.2958 3.48178 16.0477 3.25986Z" fill="white"/>
</svg>
