<?xml version="1.0" standalone="no"?><!DOCTYPE svg PUBLIC "-//W3C//DTD SVG 1.1//EN" "http://www.w3.org/Graphics/SVG/1.1/DTD/svg11.dtd"><svg t="1679839544328" class="icon" viewBox="0 0 1024 1024" version="1.1" xmlns="http://www.w3.org/2000/svg" p-id="2758" xmlns:xlink="http://www.w3.org/1999/xlink" width="200" height="200"><path d="M658.26816 392.25344c55.64416 0 100.90496-45.2608 100.90496-100.88448 0-55.64416-45.2608-100.90496-100.90496-100.90496-55.62368 0-100.88448 45.2608-100.88448 100.90496 0 13.08672 2.68288 25.4976 7.24992 36.98688l-200.41728 116.24448c-18.28864-18.432-43.60192-29.88032-71.53664-29.88032-55.62368 0-100.88448 45.2608-100.88448 100.88448 0 55.64416 45.2608 100.90496 100.88448 100.90496 28.3648 0 53.94432-11.8784 72.2944-30.80192l198.73792 125.25568c-3.85024 10.67008-6.30784 21.99552-6.30784 33.97632 0 55.62368 45.2608 100.88448 100.88448 100.88448 55.64416 0 100.90496-45.2608 100.90496-100.88448 0-55.64416-45.2608-100.90496-100.90496-100.90496-28.91776 0-54.84544 12.3904-73.25696 31.9488l-198.22592-124.94848c4.17792-11.07968 6.7584-22.9376 6.7584-35.45088 0-12.92288-2.6624-25.16992-7.10656-36.53632l200.6016-116.34688C605.2864 380.96896 630.4768 392.25344 658.26816 392.25344zM658.26816 685.01504c33.05472 0 59.94496 26.89024 59.94496 59.94496 0 33.03424-26.89024 59.92448-59.94496 59.92448-33.03424 0-59.92448-26.89024-59.92448-59.92448 0-11.01824 3.19488-21.21728 8.3968-30.08512 0.16384-0.22528 0.36864-0.38912 0.53248-0.63488 0.22528-0.34816 0.22528-0.75776 0.43008-1.10592C618.2912 696.29952 636.928 685.01504 658.26816 685.01504zM292.6592 575.56992c-33.03424 0-59.92448-26.89024-59.92448-59.94496 0-33.03424 26.89024-59.92448 59.92448-59.92448 19.53792 0 36.7616 9.54368 47.7184 24.064 0.28672 0.65536 0.3072 1.35168 0.67584 1.96608 0.96256 1.67936 2.1504 3.13344 3.4816 4.42368 4.97664 8.74496 8.06912 18.69824 8.06912 29.45024 0 11.75552-3.52256 22.67136-9.40032 31.92832-0.04096 0.06144-0.1024 0.08192-0.14336 0.14336-0.08192 0.12288-0.06144 0.24576-0.14336 0.36864C332.20608 564.57216 313.73312 575.56992 292.6592 575.56992zM658.26816 231.44448c33.05472 0 59.94496 26.89024 59.94496 59.94496 0 33.03424-26.89024 59.92448-59.94496 59.92448-33.03424 0-59.92448-26.89024-59.92448-59.92448C598.34368 258.31424 625.21344 231.44448 658.26816 231.44448z" p-id="2759"></path></svg>