<svg width="19" height="19" viewBox="0 0 19 19" fill="none" xmlns="http://www.w3.org/2000/svg">
<path d="M18.1841 1.10025C18.1339 0.778809 18.1167 0.764984 17.7866 0.704497C17.4807 0.647467 17.1748 0.625 16.8672 0.625C16.5665 0.625 16.2658 0.645738 15.9668 0.676846C14.7657 0.801276 13.594 1.06915 12.4568 1.47873C10.4435 2.20457 8.66689 3.28815 7.22903 4.89364C7.16336 4.96622 7.09596 4.99042 7.01128 4.99042C6.99054 4.99042 6.9698 4.98869 6.94733 4.98696C6.34247 4.92129 5.73587 4.81587 5.12927 4.81587H5.0878C4.00595 4.82451 3.16259 5.3205 2.57673 6.23818C2.25701 6.73935 1.93903 7.24226 1.61931 7.74516C1.32206 8.21177 1.0179 8.67147 0.72929 9.14327C0.319708 9.81381 0.706824 10.6191 1.46896 10.6762C2.38663 10.7453 3.3043 10.8006 4.22197 10.8507C4.38788 10.8594 4.45873 10.9043 4.47429 11.0806C4.52959 11.6647 4.68513 12.2212 4.99793 12.7241C5.60798 13.7022 6.49628 14.2397 7.62997 14.3901C8.05684 14.4471 8.04474 14.4506 8.07585 14.8912C8.13633 15.7726 8.202 16.6557 8.28496 17.5354C8.3368 18.0849 8.76021 18.4375 9.23201 18.4375C9.41865 18.4375 9.61394 18.3822 9.79713 18.263C10.8219 17.5924 11.8571 16.9322 12.8508 16.2168C13.7772 15.5497 14.1798 14.6095 14.0606 13.4603C14.0105 12.9678 13.969 12.4735 13.9189 11.981C13.9033 11.8289 13.9396 11.7131 14.0589 11.6042C15.5123 10.2718 16.5492 8.65938 17.2577 6.82922C17.8505 5.29804 18.2048 3.71847 18.2549 2.07496C18.2566 2.02829 18.2584 1.98163 18.2584 1.9367C18.2636 1.655 18.2273 1.37676 18.1841 1.10025ZM12.7472 8.74406H12.7281C11.3542 8.73369 10.122 7.50321 10.1514 6.14312C10.186 4.53072 11.4009 3.49207 12.8163 3.49207H12.8647C14.2472 3.51454 15.4103 4.72255 15.393 6.12757C15.374 7.5879 14.2023 8.74406 12.7472 8.74406Z" fill="white"/>
</svg>
