<svg width="18" height="18" viewBox="0 0 18 18" fill="none" xmlns="http://www.w3.org/2000/svg">
<path d="M16.972 8.09562L15.3768 6.53062V4.55674C15.3748 3.8538 15.5843 2.58488 14.8854 2.58286H10.9537L9.97081 1.10447C9.47533 0.608988 8.58507 0.486124 8.08958 0.981607L7.02208 2.58488H4.07133C3.37041 2.58689 2.56273 3.13877 2.56071 3.84171V6.42588L0.999741 8.09764C0.506271 8.59513 0.506271 9.4008 0.999741 9.89829L2.56071 11.5922V14.1764C2.56273 14.8793 2.87895 15.4111 3.57988 15.4131H6.52861L8.08757 17.0123C8.58305 17.5078 9.3867 17.5078 9.88219 17.0123L11.4432 15.4131H13.9004C14.6014 15.4111 15.3728 14.6356 15.3748 13.9327V11.4653L16.97 9.89829C17.4655 9.39878 17.4655 8.59513 16.972 8.09562ZM8.99797 12.8833L4.49229 6.42387H7.71092L8.98589 10.2709L10.285 6.42387H13.5036L8.99797 12.8833Z" fill="white"/>
</svg>
