<?xml version="1.0" standalone="no"?><!DOCTYPE svg PUBLIC "-//W3C//DTD SVG 1.1//EN" "http://www.w3.org/Graphics/SVG/1.1/DTD/svg11.dtd"><svg t="1682852308703" class="icon" viewBox="0 0 1024 1024" version="1.1" xmlns="http://www.w3.org/2000/svg" p-id="2666" xmlns:xlink="http://www.w3.org/1999/xlink" width="200" height="200"><path d="M653.983758 306.78976c2.296168-3.182655 3.44745-8.83417 3.44745-16.972453l0-24.399501c0-7.773711-0.97859-12.994135-2.916581-15.645921-1.946946-2.653065-6.456133-3.978319-13.525004-3.978319l-125.705911 0c-7.076546 0-11.585733 0.97859-13.525004 2.91786-1.946946 1.946946-2.916581 6.100515-2.916581 12.464545l0 29.172204c0 8.138284 1.409681 13.70665 4.243113 16.707659 2.825757 3.008683 7.773711 4.507908 14.850257 4.507908l123.052846 0C647.354932 311.563742 651.679915 309.972415 653.983758 306.78976z" fill="#ffffff" p-id="2667"></path><path d="M958.453045 60.716048C765.301203 1.321416 514.888438 0.639601 512.639601 0.639601c-2.270584 0-252.615551 0.680536-445.858216 60.075168l-19.305718 5.927823 0.046051 446.789475c0.249444 3.81586 6.26809 94.465237 62.18841 200.601915 33.160756 63.007099 100.550402 119.403282 154.334454 167.59978 66.185917 59.349861 147.271979 106.343908 240.963299 139.663285l7.63172 2.702954 7.632999-2.702954c93.463622-33.251579 174.321987-80.039675 240.41708-139.117066 53.694508-48.01613 121.082875-104.253692 154.381784-167.076586 56.782502-107.387737 62.483906-198.024322 62.688578-201.818436l0.044772-446.642367L958.453045 60.716048zM376.84974 320.580838l0 321.952142c0 21.920407-8.843124 32.884448-26.519139 32.884448-11.320939 0-19.09465-2.651786-23.337763-7.955358-4.243113-5.304851-6.36531-13.618386-6.36531-24.92909L320.627529 437.268374c-9.200021 13.441856-18.034191 20.7768-26.520418 22.01251-8.486227 1.243384-16.268892-1.144886-23.337763-7.160973-9.198742-6.36531-13.789799-13.965049-13.789799-22.808173 0-8.83417 5.121925-20.684698 15.381126-35.537513 20.859949-29.701794 37.392357-59.934456 49.592107-90.697987 12.19975-30.763531 22.542099-63.64798 31.028326-98.654624 2.825757-14.137742 6.713253-24.48137 11.670161-31.028326 4.947954-6.538002 13.608152-9.100244 25.989549-7.691842 11.668882 1.774253 18.737752 6.896179 21.215567 15.382405 2.46886 8.486227 1.591327 20.684698-2.653065 36.597972-5.303572 20.155108-10.525275 38.544918-15.645921 55.161753C388.427798 289.469363 382.858152 305.381358 376.84974 320.580838zM766.960328 612.565113c-1.591327 4.417085-4.159965 9.28189-7.690563 14.585462-7.077825 9.547964-15.208434 13.078562-24.398222 10.608423-9.198742-2.479094-19.451547-8.487506-30.763531-18.034191-22.98982-18.746707-42.258441-36.688795-57.813539-53.836499-15.564052-17.145146-29.353851-35.088514-41.371954-53.833941l0 133.65999c0 11.313263-2.120917 19.360724-6.36531 24.134706-4.243113 4.771424-11.493631 7.159694-21.745156 7.159694-9.904862 0-17.595425-2.386991-23.072968-7.159694-5.486498-4.773982-8.221432-12.821443-8.221432-24.134706l0-111.382685c-9.903583 14.503593-21.133698 27.936495-33.681391 40.310217-12.555369 12.373722-28.37654 26.519139-47.469911 42.432413-15.564052 12.016825-28.294671 18.737752-38.189299 20.156387-9.903583 1.408402-17.85894-2.305122-23.868632-11.139292-2.833433-4.600011-4.955629-9.017096-6.36531-13.260209-1.416077-4.241834-1.508179-8.667873-0.264795-13.25893 1.23443-4.600011 3.978319-9.373993 8.221432-14.320667 4.243113-4.955629 10.607144-10.425497 19.09465-16.442864 6.008412-4.243113 13.077283-9.721936 21.215567-16.442864 8.129329-6.713253 16.616835-14.320667 25.45868-22.806894 8.83417-8.487506 17.677294-17.677294 26.520418-27.582156 8.83417-9.894628 17.146425-20.155108 24.927811-30.762252l-85.924005 0c-11.320939 0-19.359445-2.560963-24.133427-7.691842-4.773982-5.120646-7.160973-12.464545-7.160973-22.01123 0-10.251526 2.204065-17.851265 6.630104-22.806894 4.418364-4.947954 12.638517-7.425768 24.664296-7.425768l110.323506 0 0-38.718889L489.294163 372.559936c-19.451547 0-32.976551-4.591056-40.575011-13.791078-7.608694-9.191067-11.404087-23.337763-11.404087-42.431134l0-75.316861c0-19.09465 3.795393-33.150522 11.404087-42.166339 7.59846-9.017096 21.124743-13.525004 40.575011-13.525004l179.275057 0c18.382134 0 31.376269 4.333937 38.984963 12.995414 7.59974 8.669153 11.402807 23.071689 11.402807 43.226797l0 74.785992c0 19.09465-3.538273 33.241346-10.605865 42.431134-7.077825 9.200021-20.338034 13.791078-39.781906 13.791078l-63.64798 0 0 38.718889 132.069941 0c11.311984 0 19.09465 2.479094 23.336484 7.425768 4.243113 4.955629 6.36531 12.555369 6.36531 22.806894 0 9.546685-2.21174 16.890584-6.630104 22.01123-4.426039 5.13088-12.116602 7.691842-23.071689 7.691842l-94.94238 0c17.320396 21.572464 34.651026 40.576291 51.980377 57.017875 17.320396 16.442864 32.353579 29.263027 45.084199 38.455373 8.484948 6.36531 15.024229 12.198471 19.624239 17.502043 4.591056 5.304851 7.507637 10.252805 8.752301 14.851536C768.724348 603.632444 768.550377 608.140352 766.960328 612.565113z" fill="#ffffff" p-id="2668"></path></svg>