<svg width="21" height="18" viewBox="0 0 21 18" fill="none" xmlns="http://www.w3.org/2000/svg">
<path d="M1.9378 0.5625C0.659901 0.5625 0.625 1.96174 0.625 1.96174V7.84526C0.625 9.07865 1.79999 9.38726 1.79999 9.38726H2.50784C3.34545 9.38726 3.25955 10.5199 3.25955 10.5199L2.15615 16.4139C1.90737 17.4741 2.46668 17.4373 2.46668 17.4373H6.88831C7.35544 17.4373 7.41719 16.4139 6.91963 15.867C6.42118 15.3201 6.40865 14.7071 6.40865 14.7071L6.82477 12.9457H7.68028C8.00692 12.9457 8.1501 12.4702 8.1501 12.4702V10.9009C8.1501 10.4254 7.68028 10.353 7.68028 10.353C7.6955 9.87746 8.59933 9.36732 8.59933 9.36732H10.4401C11.3788 9.36732 13.4246 7.79803 13.4246 7.79803V2.20632C12.493 1.18497 10.313 0.5625 10.313 0.5625H1.9378V0.5625ZM19.7738 4.12305H18.0529C17.7191 2.85818 16.5889 2.34488 16.5889 2.34488H14.74C14.1494 2.34488 14.2264 3.00723 14.2264 3.00723V6.98347C14.2264 7.58599 14.74 7.5566 14.74 7.5566H16.7428C17.6672 7.07479 18.0529 5.80991 18.0529 5.80991H19.7639C20.0718 5.80991 20.3125 5.44882 20.3125 4.87568C20.3125 4.30255 19.7738 4.12305 19.7738 4.12305Z" fill="white"/>
</svg>
