<svg width="23" height="25" viewBox="0 0 23 25" fill="none" xmlns="http://www.w3.org/2000/svg">
<path d="M22.1309 15.2411C21.6134 15.0409 21.1694 14.6918 20.8572 14.2394C20.5449 13.7871 20.3789 13.2526 20.3809 12.7059V12.6908C20.378 12.1441 20.5431 11.6093 20.8546 11.1564C21.166 10.7035 21.6094 10.3536 22.1266 10.1525C22.8242 9.8786 23.172 9.09332 22.9016 8.40196C22.4372 7.21481 21.7834 6.10798 20.9646 5.12309C20.7348 4.84687 20.4038 4.6704 20.0429 4.63169C19.682 4.59299 19.3201 4.69515 19.0351 4.91616C18.5993 5.25444 18.0702 5.45639 17.5163 5.4959C16.9624 5.5354 16.4092 5.41064 15.9283 5.13775C15.4479 4.8673 15.0612 4.46131 14.8184 3.97238C14.5755 3.48344 14.4876 2.93409 14.566 2.39548C14.6179 2.03978 14.5252 1.67831 14.308 1.38928C14.0907 1.10026 13.7665 0.90694 13.4053 0.85116C12.1304 0.655487 10.8323 0.657557 9.55808 0.857296C9.37899 0.885173 9.20732 0.947747 9.05305 1.04138C8.89877 1.13502 8.76497 1.25786 8.6594 1.40275C8.44639 1.69181 8.3566 2.05118 8.40915 2.40434C8.46521 2.791 8.43619 3.18498 8.32405 3.55967C8.21191 3.93436 8.01927 4.28103 7.75913 4.57627C7.499 4.87151 7.17743 5.10844 6.81614 5.27105C6.45485 5.43367 6.06227 5.51818 5.6649 5.51889C5.04252 5.51813 4.43823 5.31301 3.94802 4.9361C3.66235 4.71559 3.29997 4.61422 2.93898 4.65386C2.57798 4.69349 2.24729 4.87095 2.01817 5.14798C1.20214 6.13483 0.55139 7.24323 0.0903964 8.43144C-0.178062 9.12315 0.171732 9.90758 0.8708 10.1798C1.38735 10.3812 1.8305 10.7304 2.14289 11.1821C2.45528 11.6338 2.62253 12.1673 2.623 12.7135C2.62347 13.2597 2.45713 13.7935 2.14551 14.2457C1.83389 14.698 1.39134 15.0479 0.875135 15.2501C0.177281 15.5229 -0.171125 16.3085 0.0985472 17C0.561826 18.1876 1.21475 19.295 2.03273 20.2806C2.14667 20.4187 2.28736 20.5333 2.44665 20.6177C2.60594 20.702 2.78067 20.7545 2.96072 20.772C3.32118 20.8086 3.68197 20.7058 3.96657 20.4853C4.40229 20.1494 4.93028 19.9492 5.48266 19.9106C6.03503 19.8719 6.58654 19.9966 7.06627 20.2684C7.54601 20.5403 7.93205 20.947 8.17475 21.4363C8.41745 21.9255 8.50573 22.4749 8.42823 23.0138C8.37606 23.3695 8.4685 23.7311 8.68554 24.0203C8.90257 24.3095 9.22675 24.5031 9.58791 24.5592C10.8597 24.7554 12.155 24.7548 13.4266 24.5575C13.7878 24.5011 14.1118 24.3072 14.3286 24.0177C14.5454 23.7283 14.6375 23.3666 14.5851 23.0109C14.5055 22.4724 14.5924 21.9227 14.8343 21.4332C15.0763 20.9437 15.4623 20.5369 15.9423 20.2656C16.4214 19.9911 16.9734 19.8646 17.5266 19.9026C18.0798 19.9406 18.6086 20.1413 19.0441 20.4787C19.3291 20.6992 19.6903 20.8018 20.051 20.7645C20.2311 20.7468 20.4057 20.6942 20.5649 20.6097C20.7241 20.5252 20.8647 20.4105 20.9785 20.2722C21.7954 19.2862 22.4471 18.1784 22.9092 16.9906C23.1782 16.2986 22.8291 15.514 22.1309 15.2411ZM14.8314 12.7059C14.8314 14.5105 13.3377 15.9787 11.5016 15.9787C9.6656 15.9787 8.17191 14.5105 8.17191 12.7059C8.17191 10.9013 9.6656 9.43321 11.5016 9.43321C13.3377 9.43321 14.8314 10.9013 14.8314 12.7059Z" fill="white"/>
</svg>
