<?xml version="1.0" standalone="no"?><!DOCTYPE svg PUBLIC "-//W3C//DTD SVG 1.1//EN" "http://www.w3.org/Graphics/SVG/1.1/DTD/svg11.dtd"><svg t="1682852684503" class="icon" viewBox="0 0 1024 1024" version="1.1" xmlns="http://www.w3.org/2000/svg" p-id="4196" xmlns:xlink="http://www.w3.org/1999/xlink" width="200" height="200"><path d="M884.9 482.6v-44.5c0-206.3-167.3-373.5-373.6-373.5S137.7 231.8 137.7 438.1v44.5C93.6 528 82.4 598.4 115.7 656c40.1 69.5 129 93.3 198.5 53.1 19.3-11.1 35-26.2 46.9-43.4l-131.2-227c-10 0.8-20 2.7-29.9 5.6v-6.2c0-171.6 139.7-311.2 311.3-311.2s311.3 139.6 311.3 311.2v6.2c-9.9-2.9-19.9-4.8-29.9-5.6L661.6 665.8c11.9 17.2 27.5 32.2 46.9 43.4 13.6 7.8 27.9 12.5 42.4 15.6-22.5 68.1-83.3 118.5-156.7 126.7-0.9-22.1-19-39.8-41.4-39.8h-83c-22.9 0-41.5 18.6-41.5 41.5s18.6 41.5 41.5 41.5h83c15.9 0 29.5-9 36.5-22 86.2-6.5 157.9-65.1 182.6-144.8 53.3 3.4 106.5-22.4 135-71.8 33.3-57.6 22.1-128-22-173.5z" p-id="4197" fill="#ffffff"></path></svg>