<svg width="17" height="19" viewBox="0 0 17 19" fill="none" xmlns="http://www.w3.org/2000/svg">
<path d="M12.9106 10.3413C12.3917 8.56626 11.6547 7.60632 10.4529 7.17939L10.0952 7.96615H10.7778L9.68032 11.4046H13.2421C13.1343 11.0543 13.0147 10.6973 12.9106 10.3413ZM6.20932 7.96615L7.04945 7.80874L6.75424 7.08691C5.4164 7.44273 4.66832 8.36774 4.08791 10.3413C3.98232 10.7002 3.86713 11.0568 3.76577 11.4046H7.56606L6.20932 7.96615ZM11.3806 3.18762C11.3806 1.30007 10.0994 0.0480957 8.5193 0.0480957C6.9388 0.0480957 5.65778 1.30007 5.65778 3.18762C5.65778 3.2285 5.6586 3.26931 5.65978 3.3101C5.66004 3.31894 5.6603 3.32775 5.66062 3.33658C5.72568 5.1693 6.98041 6.88367 8.5193 6.88367C10.0857 6.88367 11.358 5.10659 11.38 3.23684H11.3801C11.3803 3.2204 11.3806 3.20411 11.3806 3.18762ZM8.07744 7.265H8.95168C9.1711 7.265 9.34896 7.41306 9.34896 7.59602L9.1505 8.05919C9.1505 8.24216 8.97241 8.39021 8.75283 8.39021H8.27613C8.05645 8.39021 7.87859 8.24216 7.87859 8.05919L7.68003 7.59602C7.68003 7.41306 7.85788 7.265 8.07744 7.265ZM9.00139 8.74771H8.02773L7.72019 11.4046H9.42922L9.00139 8.74771ZM0.763306 11.4046H16.1743V13.9184H0.763306V11.4046ZM3.44111 13.9103H13.4965V18.9461H3.44111V13.9103Z" fill="white"/>
</svg>
