<svg width="38" height="48" viewBox="0 0 38 48" fill="none" xmlns="http://www.w3.org/2000/svg">
<path d="M37.4926 12.0375C37.8165 12.3589 38 12.7929 38 13.2482V46.2857C38 47.2339 37.2281 48 36.2727 48H1.72727C0.771875 48 0 47.2339 0 46.2857V1.71429C0 0.766071 0.771875 0 1.72727 0H24.6514C25.1102 0 25.5528 0.182143 25.8767 0.503572L37.4926 12.0375ZM34.0165 14.0357L23.858 3.95357V14.0357H34.0165ZM25.543 30.7101C24.7239 30.6839 23.8527 30.746 22.863 30.8689C21.5515 30.0661 20.6686 28.9628 20.0414 27.3425C20.0565 27.2808 20.0878 27.1529 20.0988 27.1078C20.1243 27.0029 20.1456 26.9153 20.1659 26.8301C20.3976 25.8588 20.5229 25.1502 20.5599 24.4357C20.5878 23.896 20.5577 23.3981 20.4613 22.937C20.2833 21.9414 19.5731 21.3591 18.6789 21.3231C17.8452 21.2895 17.0785 21.7513 16.8825 22.4681C16.5633 23.6259 16.7502 25.1504 17.4266 27.7493C16.5649 29.788 15.4266 32.1775 14.6628 33.5103C13.6434 34.0321 12.8489 34.507 12.1823 35.0331C11.3024 35.7278 10.753 36.4415 10.6016 37.1924C10.5284 37.5395 10.6389 37.9941 10.8909 38.3662C11.1768 38.7883 11.6078 39.0622 12.1245 39.1021C13.4282 39.2026 15.0301 37.8686 16.7984 34.8561C16.9763 34.7977 17.1644 34.7352 17.3936 34.6584C17.519 34.6165 17.9584 34.4689 18.0365 34.4427C18.4424 34.3067 18.7371 34.2092 19.0283 34.1151C20.2912 33.7073 21.2466 33.4492 22.1164 33.3028C23.6263 34.1049 25.3721 34.6311 26.5478 34.6311C27.5183 34.6311 28.1739 34.1319 28.4108 33.3462C28.619 32.6559 28.4537 31.8557 28.0075 31.4132C27.5454 30.9626 26.6958 30.7471 25.543 30.7101ZM12.1574 37.5898V37.5705L12.1642 37.5524C12.233 37.3691 12.3346 37.177 12.4665 36.9761C12.6977 36.6238 13.0156 36.2529 13.4096 35.8583C13.6212 35.6464 13.8415 35.4404 14.0999 35.209C14.1579 35.1571 14.5269 34.8309 14.5959 34.7671L15.1992 34.2095L14.7609 34.9024C14.0956 35.9545 13.4946 36.7121 12.9789 37.2062C12.7896 37.3877 12.6227 37.5223 12.4882 37.6083C12.4328 37.6437 12.3848 37.6696 12.3472 37.6846C12.3251 37.6933 12.3056 37.6989 12.2862 37.7007C12.2657 37.7031 12.2449 37.7002 12.2259 37.6922C12.2056 37.6837 12.1882 37.6695 12.176 37.6513C12.1639 37.633 12.1574 37.6117 12.1574 37.5898ZM18.955 25.8968L18.833 26.1115L18.758 25.8766C18.5899 25.35 18.4672 24.5565 18.4332 23.841C18.3946 23.0269 18.4597 22.538 18.7186 22.538C19.0824 22.538 19.2492 23.117 19.2624 23.9872C19.2741 24.7523 19.1529 25.5484 18.955 25.8968ZM18.6414 29.0288L18.7242 28.8118L18.8369 29.0151C19.4679 30.1533 20.2866 31.1027 21.1869 31.7642L21.381 31.9068L21.1446 31.9552C20.2632 32.1358 19.4419 32.4082 18.3194 32.8574C18.4367 32.8105 17.1523 33.3322 16.8276 33.4558L16.5441 33.5636L16.6953 33.3024C17.362 32.1508 17.9778 30.767 18.6414 29.0288ZM27.1496 33.1142C26.7251 33.2805 25.8122 33.1318 24.2041 32.4506L23.796 32.2778L24.2386 32.2452C25.496 32.1529 26.3872 32.2217 26.9062 32.4102C27.127 32.4905 27.2746 32.5917 27.34 32.7077C27.4107 32.8329 27.3784 32.9654 27.2665 33.0457C27.2423 33.0686 27.2042 33.0929 27.1496 33.1142Z" fill="#EE5642"/>
</svg>
