<svg width="38" height="48" viewBox="0 0 38 48" fill="none" xmlns="http://www.w3.org/2000/svg">
<path d="M37.4926 12.0375C37.8165 12.3589 38 12.7929 38 13.2482V46.2857C38 47.2339 37.2281 48 36.2727 48H1.72727C0.771875 48 0 47.2339 0 46.2857V1.71429C0 0.766071 0.771875 0 1.72727 0H24.6514C25.1102 0 25.5528 0.182143 25.8767 0.503572L37.4926 12.0375ZM34.0165 14.0357L23.858 3.95357V14.0357H34.0165ZM16.6534 37.2857V32.3819H19.853C23.1224 32.3819 25.2614 30.2576 25.2614 27.1253C25.2614 24.0062 23.1252 21.8571 19.8645 21.8571H14.25C13.8923 21.8571 13.6023 22.145 13.6023 22.5V37.2857C13.6023 37.6407 13.8923 37.9286 14.25 37.9286H16.0057C16.3634 37.9286 16.6534 37.6407 16.6534 37.2857ZM16.6534 29.8218H18.5376C21.1185 29.8218 22.1641 29.1288 22.1641 27.1253C22.1641 25.4086 21.1862 24.4402 19.4722 24.4402H16.6534V29.8218Z" fill="#F38556"/>
</svg>
