<svg width="39" height="49" viewBox="0 0 39 49" fill="none" xmlns="http://www.w3.org/2000/svg">
<path d="M37.7426 12.5375C38.0665 12.8589 38.25 13.2929 38.25 13.7482V46.7857C38.25 47.7339 37.4781 48.5 36.5227 48.5H1.97727C1.02187 48.5 0.25 47.7339 0.25 46.7857V2.21429C0.25 1.26607 1.02187 0.5 1.97727 0.5H24.9014C25.3602 0.5 25.8028 0.682143 26.1267 1.00357L37.7426 12.5375ZM34.2665 14.5357L24.108 4.45357V14.5357H34.2665ZM13.3125 26.4821C13.3125 26.7714 13.55 26.9911 13.8415 26.9911H15.5903C15.8818 26.9911 16.1193 26.7661 16.1193 26.4875C16.1193 24.9768 17.5119 23.7232 19.25 23.7232C20.9881 23.7232 22.3807 24.9768 22.3807 26.4821C22.3807 27.8375 21.2472 29.0107 19.7196 29.2089C18.6778 29.3589 17.8574 30.2964 17.8466 31.3571V33.0714C17.8466 33.3661 18.0895 33.6071 18.3864 33.6071H20.1136C20.4105 33.6071 20.6534 33.3661 20.6534 33.0714V32.4179C20.6534 32.0964 20.8693 31.8018 21.177 31.7054C23.5844 30.9339 25.2253 28.8125 25.1875 26.4071C25.1443 23.4339 22.5318 21.0071 19.331 20.9643C16.0168 20.9268 13.3125 23.4071 13.3125 26.4821ZM19.25 38.6429C20.2039 38.6429 20.9773 37.8753 20.9773 36.9286C20.9773 35.9818 20.2039 35.2143 19.25 35.2143C18.2961 35.2143 17.5227 35.9818 17.5227 36.9286C17.5227 37.8753 18.2961 38.6429 19.25 38.6429Z" fill="#7A7982"/>
</svg>
