<svg width="38" height="48" viewBox="0 0 38 48" fill="none" xmlns="http://www.w3.org/2000/svg">
<path d="M37.4926 12.0375C37.8165 12.3589 38 12.7929 38 13.2482V46.2857C38 47.2339 37.2281 48 36.2727 48H1.72727C0.771875 48 0 47.2339 0 46.2857V1.71429C0 0.766071 0.771875 0 1.72727 0H24.6514C25.1102 0 25.5528 0.182143 25.8767 0.503572L37.4926 12.0375ZM34.0165 14.0357L23.858 3.95357V14.0357H34.0165ZM19 26.8979L21.8508 37.4522C21.8877 37.5888 21.969 37.7096 22.0821 37.7957C22.1952 37.8819 22.3338 37.9286 22.4764 37.9286H24.1918C24.3342 37.9286 24.4726 37.882 24.5857 37.796C24.6988 37.71 24.7801 37.5895 24.8172 37.453L28.8317 22.6673C28.8465 22.6127 28.854 22.5565 28.854 22.5C28.854 22.145 28.564 21.8571 28.2063 21.8571H26.286C26.1395 21.8571 25.9972 21.9065 25.8826 21.9971C25.7679 22.0876 25.6876 22.2141 25.6548 22.3559L23.1831 33.0222L20.4972 22.3443C20.4622 22.2052 20.3814 22.0817 20.2675 21.9934C20.1537 21.9051 20.0133 21.8572 19.8689 21.8571H18.1312C17.9867 21.8571 17.8464 21.9051 17.7325 21.9934C17.6186 22.0816 17.5378 22.2052 17.5028 22.3443L14.8223 33.0011L12.3341 22.3548C12.3011 22.2133 12.2207 22.0871 12.1061 21.9967C11.9915 21.9063 11.8495 21.8571 11.7031 21.8571H9.79337C9.73659 21.8571 9.68006 21.8645 9.62523 21.8792C9.27977 21.9713 9.07498 22.324 9.16782 22.6668L13.1715 37.4525C13.2085 37.5891 13.2898 37.7098 13.4028 37.7958C13.5159 37.8819 13.6544 37.9286 13.7969 37.9286H15.5236C15.6662 37.9286 15.8048 37.8819 15.9179 37.7957C16.031 37.7096 16.1123 37.5888 16.1492 37.4522L19 26.8979Z" fill="#4468E9"/>
</svg>
