<svg width="39" height="49" viewBox="0 0 39 49" fill="none" xmlns="http://www.w3.org/2000/svg">
<path d="M37.7426 12.5375C38.0665 12.8589 38.25 13.2929 38.25 13.7482V46.7857C38.25 47.7339 37.4781 48.5 36.5227 48.5H1.97727C1.02187 48.5 0.25 47.7339 0.25 46.7857V2.21429C0.25 1.26607 1.02187 0.5 1.97727 0.5H24.9014C25.3602 0.5 25.8028 0.682143 26.1267 1.00357L37.7426 12.5375ZM34.2665 14.5357L24.108 4.45357V14.5357H34.2665ZM22.669 22.6699L19.3647 28.1507L16.0268 22.6676C15.9691 22.5729 15.8878 22.4945 15.7907 22.4401C15.6936 22.3857 15.584 22.3572 15.4725 22.3571H13.3977C13.2753 22.3571 13.1554 22.3916 13.052 22.4564C12.7495 22.6459 12.6591 23.043 12.85 23.3432L17.2941 30.3301L12.7898 37.4437C12.7249 37.5461 12.6905 37.6647 12.6905 37.7857C12.6905 38.1407 12.9805 38.4286 13.3382 38.4286H15.1986C15.309 38.4286 15.4176 38.4006 15.514 38.3472C15.6104 38.2938 15.6915 38.2169 15.7496 38.1236L19.1343 32.6875L22.4966 38.1221C22.5545 38.2158 22.6357 38.2931 22.7324 38.3468C22.829 38.4004 22.9379 38.4286 23.0487 38.4286H25.072C25.1961 38.4286 25.3176 38.3932 25.422 38.3266C25.7231 38.1348 25.8104 37.7371 25.6171 37.4384L21.0921 30.4446L25.6962 23.348C25.7635 23.2442 25.7993 23.1234 25.7993 23C25.7993 22.645 25.5093 22.3571 25.1516 22.3571H23.2248C23.1128 22.3571 23.0028 22.386 22.9054 22.4408C22.8079 22.4956 22.7265 22.5746 22.669 22.6699Z" fill="#83D566"/>
</svg>
