<svg width="39" height="49" viewBox="0 0 39 49" fill="none" xmlns="http://www.w3.org/2000/svg">
<path d="M37.7426 12.5375C38.0665 12.8589 38.25 13.2929 38.25 13.7482V46.7857C38.25 47.7339 37.4781 48.5 36.5227 48.5H1.97727C1.02187 48.5 0.25 47.7339 0.25 46.7857V2.21429C0.25 1.26607 1.02187 0.5 1.97727 0.5H24.9014C25.3602 0.5 25.8028 0.682143 26.1267 1.00357L37.7426 12.5375ZM34.2665 14.5357L24.108 4.45357V14.5357H34.2665ZM7.59091 4.35714V7.78571H11.0455V4.35714H7.59091ZM11.0455 7.78571V11.2143H14.5V7.78571H11.0455ZM7.59091 11.2143V14.6429H11.0455V11.2143H7.59091ZM11.0455 14.6429V18.0714H14.5V14.6429H11.0455ZM7.59091 18.0714V21.5H11.0455V18.0714H7.59091ZM11.0455 21.5V24.9286H14.5V21.5H11.0455ZM7.59091 24.9286V28.3571H11.0455V24.9286H7.59091ZM7.59091 28.3571V36.9286H14.5V28.3571H7.59091ZM10.1818 30.9286H11.9091V34.3571H10.1818V30.9286Z" fill="#996E47"/>
</svg>
